<svg width="33" height="9" viewBox="0 0 33 9" fill="none" xmlns="http://www.w3.org/2000/svg">
<path d="M0.87 8.87C0.703333 8.87 0.546667 8.82333 0.4 8.73C0.253333 8.63667 0.18 8.51667 0.18 8.37C0.18 8.29667 0.196667 8.20667 0.23 8.1C0.263333 8 0.293333 7.90667 0.32 7.82C0.533333 7.16667 0.733333 6.55667 0.92 5.99C1.10667 5.42333 1.29333 4.87333 1.48 4.34C1.66667 3.80667 1.86333 3.27333 2.07 2.74C2.28333 2.20667 2.52 1.65 2.78 1.07C2.52667 1.11667 2.3 1.18667 2.1 1.28C1.90667 1.36667 1.75 1.44667 1.63 1.52C1.51 1.58667 1.43 1.62 1.39 1.62C1.36333 1.62 1.32333 1.60667 1.27 1.58C1.22333 1.54667 1.18 1.51 1.14 1.47C1.1 1.42333 1.08 1.38333 1.08 1.35C1.25333 1.27667 1.45667 1.19667 1.69 1.11C1.93 1.02333 2.18667 0.95 2.46 0.89C2.73333 0.83 3.01 0.8 3.29 0.8C3.58333 0.8 3.88 0.84 4.18 0.92C4.48667 1 4.76667 1.12333 5.02 1.29C5.27333 1.45 5.47667 1.65 5.63 1.89C5.78333 2.13 5.86 2.41 5.86 2.73C5.86 3.07667 5.78333 3.37667 5.63 3.63C5.47667 3.87667 5.27333 4.08667 5.02 4.26C4.76667 4.42667 4.49333 4.56333 4.2 4.67C3.90667 4.77 3.61333 4.85 3.32 4.91C3.03333 4.96333 2.77667 5 2.55 5.02C2.32333 5.03333 2.15667 5.04 2.05 5.04H1.95C1.75 5.72667 1.55667 6.40333 1.37 7.07C1.19 7.73667 1.02333 8.33667 0.87 8.87ZM1.99 4.88C2.35667 4.86 2.72667 4.8 3.1 4.7C3.48 4.6 3.82667 4.45667 4.14 4.27C4.45333 4.07667 4.70667 3.84 4.9 3.56C5.09333 3.27333 5.19 2.94 5.19 2.56C5.19 2.2 5.10333 1.90667 4.93 1.68C4.76333 1.45333 4.54 1.28667 4.26 1.18C3.98667 1.06667 3.69333 1.01 3.38 1.01C3.13333 1.49667 2.89333 2.08 2.66 2.76C2.42667 3.44 2.20333 4.14667 1.99 4.88ZM5.81633 8.44C5.40966 8.44 5.10299 8.32667 4.89633 8.1C4.69633 7.88 4.59633 7.60667 4.59633 7.28C4.59633 6.98 4.66966 6.66333 4.81633 6.33C4.96966 5.99667 5.16966 5.68333 5.41633 5.39C5.66966 5.09667 5.94633 4.86 6.24633 4.68C6.54633 4.49333 6.84299 4.4 7.13633 4.4C7.28966 4.4 7.42966 4.44 7.55633 4.52C7.68966 4.6 7.75633 4.76333 7.75633 5.01C7.75633 5.26333 7.67966 5.50333 7.52633 5.73C7.37966 5.95 7.18299 6.14667 6.93633 6.32C6.69633 6.49333 6.42966 6.63667 6.13633 6.75C5.84966 6.85667 5.56299 6.92333 5.27633 6.95C5.26299 7.01667 5.25299 7.08 5.24633 7.14C5.23966 7.2 5.23633 7.25667 5.23633 7.31C5.23633 7.41 5.24633 7.51 5.26633 7.61C5.29299 7.71 5.33633 7.80333 5.39633 7.89C5.45633 7.97 5.53633 8.03333 5.63633 8.08C5.74299 8.12667 5.87299 8.15 6.02633 8.15C6.31299 8.15 6.59633 8.07 6.87633 7.91C7.15633 7.74333 7.41633 7.52667 7.65633 7.26C7.89633 6.99333 8.09966 6.7 8.26633 6.38L8.38633 6.47C8.20633 6.87 7.97633 7.21667 7.69633 7.51C7.42299 7.80333 7.123 8.03 6.79633 8.19C6.47633 8.35667 6.14966 8.44 5.81633 8.44ZM5.32633 6.76C5.50633 6.7 5.70966 6.61333 5.93633 6.5C6.16299 6.38 6.37966 6.24 6.58633 6.08C6.79966 5.92 6.97299 5.74333 7.10633 5.55C7.24633 5.35667 7.31633 5.15333 7.31633 4.94C7.31633 4.86667 7.30299 4.81 7.27633 4.77C7.24966 4.73 7.19299 4.71 7.10633 4.71C6.94633 4.71 6.77633 4.77333 6.59633 4.9C6.41633 5.02 6.24299 5.18 6.07633 5.38C5.90966 5.58 5.75966 5.8 5.62633 6.04C5.49299 6.28 5.39299 6.52 5.32633 6.76ZM8.91641 8.46C8.62974 8.46 8.40974 8.37667 8.25641 8.21C8.10307 8.04333 8.02641 7.79667 8.02641 7.47C8.02641 7.17667 8.07974 6.81667 8.18641 6.39C8.29974 5.95667 8.43974 5.51333 8.60641 5.06C8.53974 5.04667 8.47641 5.03667 8.41641 5.03C8.35641 5.01667 8.29974 5 8.24641 4.98V4.8C8.29974 4.80667 8.36307 4.81333 8.43641 4.82C8.50974 4.82667 8.59307 4.83333 8.68641 4.84C8.82641 4.48 8.97641 4.13333 9.13641 3.8C9.29641 3.46 9.45307 3.16 9.60641 2.9C9.76641 2.63333 9.91641 2.42333 10.0564 2.27C10.2031 2.11 10.3264 2.03 10.4264 2.03C10.4797 2.03 10.5264 2.05 10.5664 2.09C10.6131 2.12333 10.6364 2.17667 10.6364 2.25C10.6364 2.36333 10.5664 2.55 10.4264 2.81C10.2864 3.06333 10.1131 3.36667 9.90641 3.72C9.69974 4.07333 9.49974 4.45667 9.30641 4.87C9.36641 4.87 9.42641 4.87 9.48641 4.87C9.55307 4.87 9.61641 4.87 9.67641 4.87C9.89641 4.87 10.1264 4.86667 10.3664 4.86C10.6131 4.85333 10.8597 4.83667 11.1064 4.81V4.99C10.7397 5.03 10.4097 5.06 10.1164 5.08C9.82974 5.1 9.57307 5.11 9.34641 5.11C9.31974 5.11 9.29307 5.11 9.26641 5.11C9.24641 5.11 9.22307 5.11 9.19641 5.11C9.04307 5.46333 8.91307 5.82667 8.80641 6.2C8.69974 6.57333 8.64641 6.93667 8.64641 7.29C8.64641 7.57667 8.68974 7.78333 8.77641 7.91C8.86307 8.03 9.00641 8.09 9.20641 8.09C9.55307 8.09 9.89307 7.93667 10.2264 7.63C10.5597 7.32333 10.8531 6.90667 11.1064 6.38L11.2364 6.48C11.0764 6.85333 10.8731 7.19 10.6264 7.49C10.3864 7.79 10.1197 8.02667 9.82641 8.2C9.53307 8.37333 9.22974 8.46 8.91641 8.46ZM12.648 8.26C12.4213 8.26 12.2413 8.2 12.108 8.08C11.9813 7.96 11.918 7.80333 11.918 7.61C11.918 7.41 11.9646 7.2 12.058 6.98C12.1513 6.76 12.2413 6.54333 12.328 6.33C12.4213 6.11 12.468 5.91333 12.468 5.74C12.468 5.52667 12.4046 5.37 12.278 5.27C12.158 5.16333 12.0346 5.06667 11.908 4.98C11.7546 5.37333 11.5946 5.74667 11.428 6.1C11.2613 6.45333 11.1246 6.72 11.018 6.9L10.928 6.73C11.0213 6.55667 11.1413 6.30333 11.288 5.97C11.4413 5.63667 11.5913 5.25667 11.738 4.83C11.6713 4.76333 11.638 4.68333 11.638 4.59C11.638 4.39 11.6946 4.22667 11.808 4.1C11.9213 3.97333 12.0046 3.91 12.058 3.91C12.1313 3.91 12.1713 3.94333 12.178 4.01C12.1913 4.07 12.198 4.11667 12.198 4.15C12.198 4.18333 12.178 4.25 12.138 4.35C12.1046 4.44333 12.088 4.5 12.088 4.52C12.088 4.61333 12.138 4.7 12.238 4.78C12.3446 4.85333 12.4646 4.94 12.598 5.04C12.7313 5.13333 12.848 5.25 12.948 5.39C13.0546 5.52333 13.108 5.69667 13.108 5.91C13.108 6.11 13.0646 6.31333 12.978 6.52C12.898 6.72667 12.8146 6.92333 12.728 7.11C12.648 7.29667 12.608 7.46 12.608 7.6C12.608 7.72 12.638 7.8 12.698 7.84C12.758 7.88 12.828 7.9 12.908 7.9C13.068 7.9 13.2313 7.85 13.398 7.75C13.5713 7.65 13.738 7.52333 13.898 7.37C14.058 7.21667 14.2013 7.05667 14.328 6.89C14.4546 6.71667 14.548 6.55667 14.608 6.41L14.738 6.51C14.6113 6.79 14.438 7.06667 14.218 7.34C13.998 7.60667 13.7513 7.82667 13.478 8C13.2113 8.17333 12.9346 8.26 12.648 8.26ZM15.1145 8.26C14.8545 8.26 14.6612 8.17667 14.5345 8.01C14.4079 7.85 14.3445 7.65333 14.3445 7.42C14.3445 7.26667 14.3712 7.07333 14.4245 6.84C14.4845 6.60667 14.5612 6.36333 14.6545 6.11C14.7479 5.85 14.8545 5.60667 14.9745 5.38C15.1012 5.15333 15.2345 4.97 15.3745 4.83C15.5145 4.68333 15.6512 4.61 15.7845 4.61C15.8445 4.61 15.8945 4.63 15.9345 4.67C15.9812 4.70333 16.0045 4.75667 16.0045 4.83C16.0045 4.91 15.9512 5.04 15.8445 5.22C15.7445 5.4 15.6245 5.60667 15.4845 5.84C15.3445 6.07333 15.2212 6.32 15.1145 6.58C15.0145 6.83333 14.9645 7.07667 14.9645 7.31C14.9645 7.55 15.0045 7.71 15.0845 7.79C15.1645 7.87 15.2879 7.91 15.4545 7.91C15.6812 7.91 15.9212 7.79667 16.1745 7.57C16.4345 7.34333 16.7079 6.94667 16.9945 6.38L17.0845 6.48C16.8912 7.05333 16.6112 7.49333 16.2445 7.8C15.8845 8.10667 15.5079 8.26 15.1145 8.26ZM16.3145 3.68C16.2079 3.68 16.1112 3.65333 16.0245 3.6C15.9445 3.54667 15.9045 3.46333 15.9045 3.35C15.9045 3.21 15.9845 3.09 16.1445 2.99C16.3112 2.88333 16.4745 2.83 16.6345 2.83C16.7345 2.83 16.8145 2.85333 16.8745 2.9C16.9345 2.94667 16.9645 3.02667 16.9645 3.14C16.9645 3.26667 16.8945 3.39 16.7545 3.51C16.6212 3.62333 16.4745 3.68 16.3145 3.68ZM17.8766 8.56C17.5566 8.56 17.29 8.45333 17.0766 8.24C16.8633 8.02667 16.7566 7.70667 16.7566 7.28C16.7566 6.94667 16.82 6.62333 16.9466 6.31C17.08 5.99 17.2533 5.70333 17.4666 5.45C17.68 5.19667 17.9166 4.99667 18.1766 4.85C18.4366 4.69667 18.6933 4.62 18.9466 4.62C19.22 4.62 19.4066 4.7 19.5066 4.86C19.6066 5.02 19.6566 5.18667 19.6566 5.36C19.6566 5.55333 19.61 5.72333 19.5166 5.87C19.43 6.01667 19.31 6.09 19.1566 6.09C19.0433 6.09 18.9466 6.04 18.8666 5.94C18.9666 5.88667 19.0533 5.78 19.1266 5.62C19.2 5.45333 19.2366 5.29667 19.2366 5.15C19.2366 5.07 19.22 5.01 19.1866 4.97C19.16 4.92333 19.1033 4.9 19.0166 4.9C18.8366 4.9 18.65 4.98 18.4566 5.14C18.27 5.3 18.0933 5.50667 17.9266 5.76C17.7666 6.01333 17.6333 6.28 17.5266 6.56C17.4266 6.84 17.3766 7.10333 17.3766 7.35C17.3766 7.55667 17.4266 7.74667 17.5266 7.92C17.6266 8.09333 17.82 8.18 18.1066 8.18C18.3733 8.18 18.64 8.10667 18.9066 7.96C19.18 7.81333 19.4333 7.60333 19.6666 7.33C19.9 7.05667 20.0866 6.73667 20.2266 6.37L20.3566 6.47C20.2033 6.87 19.9933 7.23 19.7266 7.55C19.46 7.86333 19.1666 8.11 18.8466 8.29C18.5266 8.47 18.2033 8.56 17.8766 8.56ZM20.5091 8.38C20.3824 8.38 20.2824 8.27333 20.2091 8.06C20.1357 7.84667 20.0991 7.60667 20.0991 7.34C20.0991 7.02 20.1524 6.64 20.2591 6.2C20.3657 5.76 20.5057 5.29667 20.6791 4.81C20.8524 4.32333 21.0457 3.84667 21.2591 3.38C21.4791 2.91333 21.7024 2.49 21.9291 2.11C22.1557 1.73 22.3691 1.42667 22.5691 1.2C22.7691 0.973333 22.9424 0.86 23.0891 0.86C23.2091 0.86 23.2924 0.933333 23.3391 1.08C23.3924 1.22 23.4191 1.35667 23.4191 1.49C23.4191 1.67667 23.3757 1.90333 23.2891 2.17C23.2091 2.43667 23.0957 2.72333 22.9491 3.03C22.8024 3.33 22.6324 3.62667 22.4391 3.92C22.2457 4.21333 22.0357 4.48333 21.8091 4.73C21.5824 4.97 21.3524 5.16 21.1191 5.3C21.0391 5.49333 20.9691 5.71 20.9091 5.95C20.8557 6.19 20.8157 6.42667 20.7891 6.66C20.7624 6.88667 20.7491 7.09 20.7491 7.27C20.7491 7.34333 20.7491 7.40667 20.7491 7.46C20.7557 7.51333 20.7624 7.56333 20.7691 7.61C20.8624 7.33667 20.9624 7.07333 21.0691 6.82C21.1824 6.56 21.3024 6.32333 21.4291 6.11C21.5557 5.89 21.6891 5.7 21.8291 5.54C21.9757 5.37333 22.1291 5.24667 22.2891 5.16C22.4491 5.06667 22.6191 5.02 22.7991 5.02C22.9857 5.02 23.1324 5.06667 23.2391 5.16C23.3524 5.24667 23.4324 5.36 23.4791 5.5C23.5324 5.63333 23.5591 5.77333 23.5591 5.92C23.5591 6.12667 23.5224 6.32667 23.4491 6.52C23.3824 6.71333 23.3124 6.9 23.2391 7.08C23.1657 7.26 23.1291 7.43333 23.1291 7.6C23.1291 7.73333 23.1557 7.83 23.2091 7.89C23.2691 7.95 23.3424 7.98 23.4291 7.98C23.5824 7.98 23.7524 7.90667 23.9391 7.76C24.1324 7.61333 24.3224 7.42 24.5091 7.18C24.6957 6.93333 24.8557 6.66667 24.9891 6.38L25.1191 6.5C24.9791 6.82667 24.8091 7.12333 24.6091 7.39C24.4091 7.65 24.1891 7.85667 23.9491 8.01C23.7091 8.16333 23.4591 8.24 23.1991 8.24C22.9724 8.24 22.7991 8.18 22.6791 8.06C22.5657 7.94 22.5091 7.79 22.5091 7.61C22.5091 7.47 22.5357 7.31333 22.5891 7.14C22.6424 6.96667 22.6924 6.79 22.7391 6.61C22.7924 6.43 22.8191 6.26 22.8191 6.1C22.8191 5.92667 22.7824 5.80333 22.7091 5.73C22.6357 5.65667 22.5457 5.62 22.4391 5.62C22.2724 5.62 22.1224 5.68667 21.9891 5.82C21.8557 5.95333 21.7324 6.12667 21.6191 6.34C21.5124 6.54667 21.4091 6.76667 21.3091 7C21.2157 7.23333 21.1257 7.45667 21.0391 7.67C20.9524 7.87667 20.8657 8.04667 20.7791 8.18C20.6924 8.31333 20.6024 8.38 20.5091 8.38ZM21.2491 4.91C21.4357 4.76333 21.6157 4.57667 21.7891 4.35C21.9691 4.12333 22.1357 3.88333 22.2891 3.63C22.4424 3.37 22.5791 3.11667 22.6991 2.87C22.8191 2.62333 22.9124 2.4 22.9791 2.2C23.0457 2 23.0791 1.85 23.0791 1.75C23.0791 1.71667 23.0757 1.69667 23.0691 1.69C23.0624 1.67667 23.0524 1.67 23.0391 1.67C22.9924 1.67 22.8957 1.76333 22.7491 1.95C22.6091 2.13 22.4457 2.37333 22.2591 2.68C22.0724 2.98667 21.8891 3.33333 21.7091 3.72C21.5291 4.10667 21.3757 4.50333 21.2491 4.91ZM25.4749 8.32C25.2216 8.32 25.0249 8.23667 24.8849 8.07C24.7449 7.91 24.6749 7.70333 24.6749 7.45C24.6749 7.23667 24.7183 7 24.8049 6.74C24.8983 6.47333 25.0249 6.21 25.1849 5.95C25.3449 5.68333 25.5249 5.44 25.7249 5.22C25.9316 5 26.1516 4.82333 26.3849 4.69C26.6183 4.55 26.8549 4.48 27.0949 4.48C27.2216 4.48 27.3183 4.5 27.3849 4.54C27.4516 4.58 27.4983 4.63 27.5249 4.69C27.5383 4.68333 27.5483 4.68 27.5549 4.68C27.5683 4.68 27.5816 4.68 27.5949 4.68C27.7216 4.68 27.8083 4.73 27.8549 4.83C27.9083 4.93 27.9349 5.01 27.9349 5.07C27.9349 5.15 27.9016 5.25667 27.8349 5.39C27.7683 5.51667 27.7016 5.66 27.6349 5.82C27.5749 5.98 27.5449 6.15 27.5449 6.33C27.5449 6.51667 27.5916 6.65667 27.6849 6.75C27.7783 6.83667 27.9283 6.88 28.1349 6.88C28.2683 6.88 28.4083 6.81667 28.5549 6.69C28.7083 6.55667 28.8583 6.39 29.0049 6.19C29.1516 5.98333 29.2816 5.76 29.3949 5.52C29.5149 5.28 29.6049 5.05 29.6649 4.83C29.5983 4.76333 29.5649 4.68333 29.5649 4.59C29.5649 4.45667 29.5916 4.34 29.6449 4.24C29.6983 4.13333 29.7583 4.05333 29.8249 4C29.8983 3.94 29.9516 3.91 29.9849 3.91C30.0583 3.91 30.0983 3.94333 30.1049 4.01C30.1183 4.07 30.1249 4.11667 30.1249 4.15C30.1249 4.18333 30.1049 4.25 30.0649 4.35C30.0316 4.44333 30.0149 4.5 30.0149 4.52C30.0149 4.61333 30.0649 4.7 30.1649 4.78C30.2716 4.85333 30.3916 4.94 30.5249 5.04C30.6583 5.13333 30.7749 5.25 30.8749 5.39C30.9816 5.52333 31.0349 5.69667 31.0349 5.91C31.0349 6.11 30.9916 6.31333 30.9049 6.52C30.8249 6.72667 30.7416 6.92333 30.6549 7.11C30.5749 7.29667 30.5349 7.46 30.5349 7.6C30.5349 7.72 30.5649 7.8 30.6249 7.84C30.6849 7.88 30.7549 7.9 30.8349 7.9C30.9949 7.9 31.1583 7.85 31.3249 7.75C31.4983 7.65 31.6649 7.52333 31.8249 7.37C31.9849 7.21667 32.1283 7.05667 32.2549 6.89C32.3816 6.71667 32.4749 6.55667 32.5349 6.41L32.6649 6.51C32.5383 6.79 32.3649 7.06667 32.1449 7.34C31.9249 7.60667 31.6783 7.82667 31.4049 8C31.1383 8.17333 30.8616 8.26 30.5749 8.26C30.3483 8.26 30.1683 8.2 30.0349 8.08C29.9083 7.96 29.8449 7.80333 29.8449 7.61C29.8449 7.41 29.8916 7.2 29.9849 6.98C30.0783 6.76 30.1683 6.54333 30.2549 6.33C30.3483 6.11 30.3949 5.91333 30.3949 5.74C30.3949 5.52667 30.3316 5.37 30.2049 5.27C30.0849 5.16333 29.9616 5.06667 29.8349 4.98C29.7616 5.20667 29.6616 5.44667 29.5349 5.7C29.4149 5.94667 29.2783 6.18 29.1249 6.4C28.9716 6.61333 28.8049 6.78667 28.6249 6.92C28.4516 7.05333 28.2683 7.12 28.0749 7.12C27.8883 7.12 27.7183 7.08333 27.5649 7.01C27.4183 6.93 27.3049 6.81333 27.2249 6.66C27.0183 7.14667 26.7616 7.54667 26.4549 7.86C26.1549 8.16667 25.8283 8.32 25.4749 8.32ZM25.6949 7.89C25.8483 7.89 26.0116 7.82333 26.1849 7.69C26.3583 7.55 26.5283 7.36333 26.6949 7.13C26.8616 6.89667 27.0049 6.63667 27.1249 6.35C27.0849 6.19 27.0649 6 27.0649 5.78C27.0649 5.62667 27.0716 5.49333 27.0849 5.38C27.1049 5.26667 27.1283 5.16667 27.1549 5.08C27.1883 4.99333 27.2216 4.92333 27.2549 4.87C27.0283 4.87 26.8149 4.93333 26.6149 5.06C26.4216 5.18 26.2449 5.34 26.0849 5.54C25.9249 5.73333 25.7883 5.94333 25.6749 6.17C25.5616 6.39667 25.4716 6.61667 25.4049 6.83C25.3449 7.04333 25.3149 7.22667 25.3149 7.38C25.3149 7.53333 25.3483 7.65667 25.4149 7.75C25.4816 7.84333 25.5749 7.89 25.6949 7.89Z" fill="#FFEEF0"/>
</svg>
